<?xml version="1.0" encoding="UTF-8"?>
<!DOCTYPE svg PUBLIC "-//W3C//DTD SVG 1.1//EN" "http://www.w3.org/Graphics/SVG/1.1/DTD/svg11.dtd">
<!-- Creator: CorelDRAW X7 -->
<svg xmlns="http://www.w3.org/2000/svg" xml:space="preserve" width="222.94mm" height="66.5691mm" version="1.1" style="shape-rendering:geometricPrecision; text-rendering:geometricPrecision; image-rendering:optimizeQuality; fill-rule:evenodd; clip-rule:evenodd"
viewBox="0 0 22294 6657"
 xmlns:xlink="http://www.w3.org/1999/xlink">
 <defs>
  <style type="text/css">
   <![CDATA[
    .str4 {stroke:white;stroke-width:20}
    .str3 {stroke:#FFF212;stroke-width:7.62}
    .str0 {stroke:black;stroke-width:7.62}
    .str1 {stroke:#FBB911;stroke-width:7.62}
    .str2 {stroke:white;stroke-width:7.62}
    .fil7 {fill:none;fill-rule:nonzero}
    .fil2 {fill:black}
    .fil1 {fill:#FBB911}
    .fil0 {fill:white}
    .fil5 {fill:white}
    .fil3 {fill:black;fill-rule:nonzero}
    .fil6 {fill:#909090;fill-rule:nonzero}
    .fil4 {fill:white;fill-rule:nonzero}
   ]]>
  </style>
 </defs>
 <g id="Camada_x0020_1">
  <metadata id="CorelCorpID_0Corel-Layer"/>
  <g id="_338367280">
   <path class="fil0" d="M1305 0l19684 0c721,0 1305,481 1305,1075l0 4474c0,593 -584,1075 -1305,1075l-19684 0c-721,0 -1305,-482 -1305,-1075l0 -4474c0,-594 584,-1075 1305,-1075l0 0z"/>
   <path class="fil1" d="M706 2577l4550 0c251,0 455,224 455,501l0 1053c0,277 -204,501 -455,501l-4550 0c-252,0 -456,-224 -456,-501l0 -1053c0,-277 204,-501 456,-501l0 0z"/>
   <path class="fil2 str0" d="M5533 2577l1473 0c231,0 418,176 418,392l0 1271c0,216 -187,392 -418,392l-1473 0c-231,0 -418,-176 -418,-392l0 -1271c0,-216 187,-392 418,-392l0 0z"/>
   <g>
    <path class="fil1 str1" d="M1936 1362c0,96 121,72 204,72 46,0 92,0 138,0 45,-1 85,11 85,52 0,93 -223,35 -293,56 -62,17 -79,137 43,135 25,0 54,-3 75,4 48,16 73,102 -61,101l-329 0c-90,-1 -105,12 -105,79 0,41 43,59 53,59l3540 0c106,0 218,-82 265,-175 23,-45 142,-270 142,-305l0 -39c0,-47 -58,-105 -105,-105l-3599 0c-25,0 -53,40 -53,66z"/>
    <g>
     <g>
      <path class="fil2" d="M4133 1720l-74 -45c-68,83 -199,35 -168,-81 11,-44 42,-78 84,-87 81,-18 105,60 115,57 28,-10 56,-21 84,-30 -25,-150 -325,-168 -380,42 -63,243 267,288 339,144z"/>
      <polygon class="fil2" points="3857,1869 3971,1869 4012,1825 3893,1825 "/>
      <path class="fil3" d="M2576 1424l115 0 64 372 -113 0 -13 -79 -114 0 -47 79 -113 0 221 -372zm53 215l-18 -109 -65 109 83 0z"/>
      <path class="fil3" d="M3199 1424l115 0 64 372 -113 0 -14 -79 -113 0 -47 79 -114 0 222 -372zm53 215l-19 -109 -64 109 83 0z"/>
      <path class="fil3" d="M4340 1424l115 0 64 372 -113 0 -13 -79 -114 0 -47 79 -113 0 221 -372zm53 215l-18 -109 -65 109 83 0z"/>
      <polygon class="fil3" points="3460,1424 3553,1424 3652,1621 3693,1424 3802,1424 3723,1796 3630,1796 3532,1599 3490,1796 3382,1796 "/>
      <polygon class="fil3" points="2740,1424 2849,1424 2884,1670 3023,1424 3140,1424 2919,1796 2804,1796 "/>
     </g>
     <path class="fil4" d="M4518 1424l166 0c45,0 81,11 107,34 27,23 40,56 40,101 0,17 -2,35 -6,53 -13,65 -36,111 -70,140 -34,29 -82,44 -145,44l-171 0 79 -372zm91 289c19,0 36,-3 49,-9 13,-5 24,-15 33,-30 10,-15 17,-35 23,-62 4,-21 7,-38 7,-51 0,-20 -6,-34 -16,-42 -11,-8 -28,-12 -52,-12l-44 0 -44 206 44 0z"/>
     <polygon id="1" class="fil4" points="4886,1424 5168,1424 5151,1507 4977,1507 4964,1568 5116,1568 5098,1652 4946,1652 4933,1713 5107,1713 5089,1796 4807,1796 "/>
     <polygon id="2" class="fil4" points="5177,1424 5287,1424 5322,1670 5460,1424 5578,1424 5356,1796 5241,1796 "/>
    </g>
    <path class="fil1 str1" d="M1809 1597c0,114 144,93 144,7 0,-84 -144,-90 -144,-7z"/>
   </g>
   <g>
    <path class="fil5 str2" d="M6093 3603c0,415 528,341 528,24 0,-304 -528,-328 -528,-24z"/>
    <g>
     <path class="fil1" d="M5877 3394c7,-10 16,-19 25,-27 7,-6 9,-6 15,-12l79 -57c109,-72 306,-123 434,-94l75 22 -78 69 393 87c21,4 11,-19 -12,-130 -9,-39 -17,-83 -27,-122l-26 -126 -66 57c0,0 0,0 0,0l-79 -40c-68,-31 -143,-48 -219,-53l-85 0c-184,11 -366,93 -480,233 -9,12 -16,22 -26,34 -24,29 -49,77 -66,112 -24,46 -47,123 -52,186 -1,16 -3,34 -3,52l0 54c1,30 4,60 11,87l9 21c2,-25 16,-80 25,-107 25,-77 97,-208 153,-246z"/>
     <path class="fil1" d="M5800 3726c-58,288 138,451 400,501 201,38 402,-2 562,-132 25,-20 93,-77 99,-100 -7,-10 -155,-162 -169,-165 -30,27 -53,63 -94,97 -306,248 -767,-27 -650,-469 -60,30 -136,204 -148,268z"/>
    </g>
   </g>
   <polygon class="fil2" points="4511,3903 4511,3709 4786,3604 4511,3500 4511,3306 5047,3505 5048,3505 5048,3506 5048,3703 5048,3704 5047,3704 "/>
   <polygon class="fil2" points="885,3500 885,3306 349,3505 348,3505 348,3506 348,3703 348,3704 349,3704 885,3903 885,3709 610,3604 "/>
   <g>
    <path class="fil2" d="M3843 3733l-126 -76c-115,142 -340,59 -287,-139 20,-74 72,-132 144,-148 139,-30 178,102 195,96 49,-15 97,-35 144,-50 -41,-256 -554,-288 -648,71 -108,415 456,493 578,246z"/>
    <polygon class="fil2" points="3372,3988 3568,3988 3636,3912 3433,3912 "/>
    <path class="fil3" d="M1280 3228l196 0 110 635 -194 0 -23 -135 -193 0 -81 135 -194 0 379 -635zm90 367l-31 -187 -111 187 142 0z"/>
    <path class="fil3" d="M2248 3228l196 0 110 635 -193 0 -23 -135 -194 0 -81 135 -193 0 378 -635zm91 367l-32 -187 -110 187 142 0z"/>
    <polygon class="fil3" points="2695,3228 2853,3228 3021,3564 3093,3228 3278,3228 3144,3863 2985,3863 2817,3528 2746,3863 2561,3863 "/>
    <polygon class="fil3" points="1521,3228 1708,3228 1768,3648 2004,3228 2205,3228 1827,3863 1630,3863 "/>
    <path class="fil3" d="M4178 3228l197 0 109 635 -193 0 -23 -135 -194 0 -80 135 -194 0 378 -635zm91 367l-32 -187 -110 187 142 0z"/>
   </g>
   <path class="fil1" d="M16488 2577l5067 0c279,0 506,224 506,501l0 1053c0,277 -227,501 -506,501l-5067 0c-279,0 -506,-224 -506,-501l0 -1053c0,-277 227,-501 506,-501l0 0z"/>
   <g>
    <path class="fil1 str1" d="M16322 1362c0,96 120,72 203,72 46,0 92,0 138,0 46,-1 85,11 85,52 0,93 -223,35 -293,56 -61,17 -79,137 44,135 24,0 54,-3 75,4 47,16 73,102 -62,101l-328 0c-91,-1 -106,12 -106,79 0,41 44,59 53,59l3540 0c107,0 218,-82 265,-175 23,-45 142,-270 142,-305l0 -39c0,-47 -57,-105 -105,-105l-3599 0c-24,0 -52,40 -52,66z"/>
    <g>
     <g>
      <path class="fil2" d="M18518 1720l-73 -45c-68,83 -200,35 -169,-81 12,-44 42,-78 85,-87 81,-18 104,60 114,57 29,-10 56,-21 84,-30 -24,-150 -324,-168 -379,42 -64,243 267,288 338,144z"/>
      <polygon class="fil2" points="18242,1869 18357,1869 18397,1825 18278,1825 "/>
      <path class="fil3" d="M16962 1424l115 0 64 372 -114 0 -13 -79 -113 0 -48 79 -113 0 222 -372zm53 215l-19 -109 -64 109 83 0z"/>
      <path class="fil3" d="M17584 1424l115 0 64 372 -113 0 -13 -79 -113 0 -48 79 -113 0 221 -372zm53 215l-18 -109 -65 109 83 0z"/>
      <path class="fil3" d="M18726 1424l115 0 64 372 -114 0 -13 -79 -113 0 -48 79 -113 0 222 -372zm53 215l-19 -109 -65 109 84 0z"/>
      <polygon class="fil3" points="17846,1424 17938,1424 18037,1621 18079,1424 18187,1424 18109,1796 18016,1796 17917,1599 17876,1796 17767,1796 "/>
      <polygon class="fil3" points="17125,1424 17235,1424 17270,1670 17408,1424 17526,1424 17304,1796 17189,1796 "/>
     </g>
     <path class="fil4" d="M18903 1424l167 0c45,0 81,11 107,34 26,23 39,56 39,101 0,17 -1,35 -5,53 -13,65 -37,111 -71,140 -33,29 -82,44 -145,44l-170 0 78 -372zm92 289c19,0 35,-3 48,-9 13,-5 24,-15 34,-30 9,-15 17,-35 23,-62 4,-21 6,-38 6,-51 0,-20 -5,-34 -16,-42 -10,-8 -28,-12 -52,-12l-43 0 -44 206 44 0z"/>
     <polygon id="1" class="fil4" points="19271,1424 19553,1424 19536,1507 19363,1507 19349,1568 19501,1568 19484,1652 19332,1652 19319,1713 19492,1713 19475,1796 19193,1796 "/>
     <polygon id="2" class="fil4" points="19563,1424 19673,1424 19707,1670 19846,1424 19963,1424 19742,1796 19627,1796 "/>
    </g>
    <path class="fil1 str1" d="M16194 1597c0,114 145,93 145,7 0,-84 -145,-90 -145,-7z"/>
   </g>
   <path class="fil2 str0" d="M14917 2577l1473 0c231,0 418,176 418,392l0 1271c0,216 -187,392 -418,392l-1473 0c-231,0 -418,-176 -418,-392l0 -1271c0,-216 187,-392 418,-392l0 0z"/>
   <g>
    <polygon class="fil2" points="17403,3496 17403,3292 16838,3502 16837,3502 16837,3502 16837,3711 16837,3712 16838,3711 17403,3921 17403,3717 17113,3607 "/>
    <g>
     <polygon class="fil2" points="21265,3071 20932,4138 21130,4138 21462,3071 "/>
     <polygon class="fil2" points="21416,3919 21416,3715 21706,3604 21416,3494 21416,3290 21981,3500 21982,3499 21982,3500 21982,3709 21982,3710 21981,3709 "/>
    </g>
    <g>
     <path class="fil2" d="M20363 3733l-125 -76c-116,142 -341,59 -288,-139 20,-74 72,-132 145,-148 138,-30 178,102 195,96 49,-15 96,-35 143,-50 -41,-256 -553,-288 -647,71 -109,415 455,493 577,246z"/>
     <polygon class="fil2" points="19892,3988 20088,3988 20156,3912 19953,3912 "/>
     <path class="fil3" d="M17800 3228l196 0 110 635 -194 0 -22 -135 -194 0 -81 135 -193 0 378 -635zm91 367l-32 -187 -111 187 143 0z"/>
     <path class="fil3" d="M18768 3228l197 0 109 635 -193 0 -23 -135 -193 0 -81 135 -194 0 378 -635zm91 367l-31 -187 -111 187 142 0z"/>
     <polygon class="fil3" points="19215,3228 19373,3228 19542,3564 19613,3228 19798,3228 19664,3863 19505,3863 19337,3528 19266,3863 19081,3863 "/>
     <polygon class="fil3" points="18041,3228 18229,3228 18288,3648 18525,3228 18725,3228 18347,3863 18151,3863 "/>
     <path class="fil3" d="M20698 3228l197 0 109 635 -193 0 -23 -135 -193 0 -81 135 -194 0 378 -635zm91 367l-31 -187 -111 187 142 0z"/>
    </g>
   </g>
   <g>
    <path class="fil5 str2" d="M15477 3603c0,415 528,341 528,24 0,-304 -528,-328 -528,-24z"/>
    <g>
     <path class="fil1" d="M15261 3394c7,-10 16,-19 25,-27 7,-6 9,-6 15,-12l79 -57c109,-72 306,-123 434,-94l75 22 -78 69 393 87c21,4 11,-19 -12,-130 -9,-39 -17,-83 -27,-122l-26 -126 -66 57c0,0 0,0 0,0l-79 -40c-68,-31 -143,-48 -219,-53l-85 0c-184,11 -366,93 -480,233 -9,12 -16,22 -26,34 -24,29 -49,77 -66,112 -24,46 -47,123 -52,186 -1,16 -3,34 -3,52l0 54c1,30 4,60 11,87l9 21c2,-25 16,-80 25,-107 25,-77 97,-208 153,-246z"/>
     <path class="fil1" d="M15184 3726c-58,288 138,451 400,501 201,38 402,-2 562,-132 25,-20 93,-77 99,-100 -7,-10 -155,-162 -169,-165 -30,27 -53,63 -94,97 -306,248 -767,-27 -650,-469 -60,30 -136,204 -148,268z"/>
    </g>
   </g>
   <g>
    <g>
     <path class="fil1 str1" d="M9743 3065c0,97 121,73 204,73 46,0 92,0 138,-1 45,0 85,12 85,53 0,93 -223,35 -293,55 -61,18 -79,137 43,136 25,0 54,-3 75,4 48,16 73,102 -61,101l-329 0c-90,-1 -105,12 -105,79 0,41 43,59 53,59l3540 0c106,0 218,-82 265,-175 23,-46 142,-270 142,-305l0 -39c0,-47 -58,-105 -105,-105l-3599 0c-25,0 -53,40 -53,65z"/>
     <g>
      <g>
       <path class="fil2" d="M11940 3424l-74 -45c-68,83 -199,35 -168,-81 11,-44 42,-78 84,-87 81,-18 105,60 115,56 28,-9 56,-20 84,-29 -25,-150 -325,-169 -380,42 -63,243 267,288 339,144z"/>
       <polygon class="fil2" points="11664,3573 11778,3573 11819,3528 11700,3528 "/>
       <path class="fil3" d="M10383 3128l115 0 64 372 -113 0 -13 -79 -114 0 -47 79 -113 0 221 -372zm53 215l-18 -110 -65 110 83 0z"/>
       <path class="fil3" d="M11006 3128l115 0 64 372 -113 0 -14 -79 -113 0 -47 79 -114 0 222 -372zm53 215l-19 -110 -64 110 83 0z"/>
       <path class="fil3" d="M12147 3128l115 0 64 372 -113 0 -13 -79 -114 0 -47 79 -113 0 221 -372zm53 215l-18 -110 -65 110 83 0z"/>
       <polygon class="fil3" points="11267,3128 11360,3128 11459,3325 11500,3128 11609,3128 11530,3500 11437,3500 11339,3303 11297,3500 11189,3500 "/>
       <polygon class="fil3" points="10547,3128 10656,3128 10691,3374 10830,3128 10947,3128 10726,3500 10611,3500 "/>
      </g>
      <path class="fil4" d="M12325 3128l166 0c45,0 81,11 107,34 27,22 40,56 40,101 0,17 -2,35 -6,53 -13,64 -36,111 -70,140 -34,29 -82,44 -145,44l-171 0 79 -372zm91 289c19,0 36,-3 49,-9 13,-5 24,-16 33,-30 10,-15 17,-35 23,-62 5,-21 7,-38 7,-51 0,-20 -6,-34 -16,-42 -11,-8 -28,-12 -52,-12l-44 0 -44 206 44 0z"/>
      <polygon id="1" class="fil4" points="12693,3128 12975,3128 12958,3211 12784,3211 12771,3271 12923,3271 12905,3356 12753,3356 12740,3417 12914,3417 12896,3500 12614,3500 "/>
      <polygon id="2" class="fil4" points="12984,3128 13094,3128 13129,3374 13267,3128 13385,3128 13163,3500 13048,3500 "/>
     </g>
     <path class="fil1 str1" d="M9616 3301c0,113 144,93 144,6 0,-83 -144,-89 -144,-6z"/>
    </g>
    <path class="fil6" d="M10616 3947c-6,0 -12,-1 -17,-3 -4,-2 -8,-4 -12,-8l-3 9 -30 0 30 -143 34 0 -10 47c9,-5 19,-7 29,-7 12,0 22,3 29,9 6,6 10,15 10,27 0,4 -1,10 -2,15 -4,19 -10,32 -20,41 -9,8 -22,13 -38,13zm-4 -25c7,0 13,-2 18,-7 4,-4 7,-12 9,-21 1,-6 2,-10 2,-12 0,-6 -2,-9 -4,-12 -3,-2 -7,-3 -13,-3 -9,0 -15,2 -21,6l-8 41c1,3 4,5 7,6 3,1 6,2 10,2z"/>
    <path id="1" class="fil6" d="M10714 3982c-5,0 -10,0 -16,-1 -5,0 -9,-1 -12,-1l6 -26c2,1 6,2 10,2 4,1 8,1 11,1 14,0 23,-1 30,-4 6,-2 10,-7 11,-13l1 -4c-11,7 -23,11 -37,11 -9,0 -16,-3 -22,-9 -6,-5 -8,-12 -8,-21 0,-3 0,-6 1,-10l13 -63 34 0 -13 61c0,4 -1,6 -1,8 0,3 1,5 3,7 2,1 6,2 11,2 4,0 8,-1 12,-3 4,-1 8,-4 11,-6l14 -69 34 0 -19 91c-3,16 -11,28 -22,35 -12,8 -29,12 -52,12z"/>
    <polygon id="2" class="fil6" points="10907,3808 10940,3808 10941,3890 10973,3827 10977,3808 11005,3808 11011,3891 11047,3808 11080,3808 11020,3945 10989,3945 10983,3866 10942,3945 10909,3945 "/>
    <path id="3" class="fil6" d="M11106 3947c-14,0 -26,-4 -35,-11 -9,-6 -13,-16 -13,-29 0,-4 0,-8 1,-13 8,-35 29,-52 64,-52 13,0 23,3 30,10 8,6 12,15 12,25 0,3 -1,7 -2,10l-3 18 -71 0c0,7 2,12 6,14 5,3 13,4 24,4 6,0 11,0 17,-1 6,-1 11,-3 15,-4l-4 22c-11,4 -24,7 -41,7zm28 -61l1 -5c0,-1 1,-2 1,-4 0,-8 -6,-12 -17,-12 -8,0 -14,2 -18,5 -4,3 -7,8 -8,16l41 0z"/>
    <path id="4" class="fil6" d="M11205 3947c-8,0 -15,-1 -22,-2 -7,-1 -12,-3 -16,-4l5 -26c5,2 10,3 16,4 6,2 12,2 17,2 7,0 12,0 14,-1 3,0 4,-2 5,-4 0,-2 -1,-4 -3,-5 -2,-1 -6,-3 -11,-5l-9 -3c-7,-3 -13,-6 -17,-9 -3,-4 -5,-8 -5,-14 0,-2 0,-5 1,-7 2,-10 7,-18 15,-23 9,-5 21,-8 38,-8 6,0 12,1 18,1 6,1 11,3 15,4l-6 26c-3,-2 -7,-3 -12,-4 -5,-1 -9,-2 -14,-2 -6,0 -11,1 -14,1 -3,1 -5,2 -6,5 0,2 1,3 2,4 2,1 6,2 11,4 1,0 3,1 4,1 1,1 3,1 4,2 9,3 16,6 19,9 4,4 6,8 6,14 0,2 0,5 -1,9 -2,10 -8,18 -16,23 -9,5 -21,8 -38,8z"/>
    <path id="5" class="fil6" d="M11300 3947c-8,0 -14,-2 -19,-5 -4,-3 -6,-9 -6,-16 0,-3 0,-7 1,-10l24 -114 35 0 -24 111c0,2 -1,3 -1,3 0,2 1,3 2,4 1,1 3,1 5,1 4,0 7,0 11,-1l-5 23c-4,1 -8,2 -11,3 -3,0 -7,1 -12,1z"/>
    <path id="6" class="fil6" d="M11388 3947c-14,0 -26,-4 -34,-11 -9,-6 -14,-16 -14,-29 0,-4 1,-8 2,-13 7,-35 28,-52 63,-52 13,0 23,3 31,10 7,6 11,15 11,25 0,3 0,7 -1,10l-4 18 -71 0c0,7 2,12 7,14 4,3 12,4 23,4 6,0 12,0 18,-1 5,-1 10,-3 15,-4l-5 22c-11,4 -24,7 -41,7zm29 -61l0 -5c1,-1 1,-2 1,-4 0,-8 -6,-12 -17,-12 -8,0 -13,2 -17,5 -5,3 -7,8 -9,16l42 0z"/>
    <path id="7" class="fil6" d="M11484 3982c-5,0 -10,0 -15,-1 -6,0 -10,-1 -12,-1l5 -26c3,1 6,2 10,2 5,1 9,1 12,1 13,0 23,-1 29,-4 6,-2 10,-7 12,-13l0 -4c-11,7 -23,11 -37,11 -9,0 -16,-3 -22,-9 -5,-5 -8,-12 -8,-21 0,-3 0,-6 1,-10l14 -63 34 0 -13 61c-1,4 -1,6 -1,8 0,3 1,5 3,7 2,1 5,2 11,2 4,0 8,-1 12,-3 4,-1 7,-4 10,-6l15 -69 34 0 -19 91c-4,16 -11,28 -23,35 -12,8 -29,12 -52,12z"/>
    <polygon id="8" class="fil6" points="11677,3808 11710,3808 11711,3890 11743,3827 11747,3808 11775,3808 11781,3891 11817,3808 11851,3808 11790,3945 11760,3945 11754,3866 11712,3945 11680,3945 "/>
    <path id="9" class="fil6" d="M11872 3803l37 0 -6 25 -37 0 6 -25zm-12 66l-14 0 8 -25 46 0 -21 101 -34 0 15 -76z"/>
    <path id="10" class="fil6" d="M11931 3947c-9,0 -15,-2 -19,-5 -5,-3 -7,-9 -7,-16 0,-3 1,-7 1,-10l25 -114 34 0 -24 111c0,2 0,3 0,3 0,2 0,3 1,4 2,1 3,1 5,1 4,0 8,0 11,-1l-5 23c-4,1 -7,2 -10,3 -4,0 -8,1 -12,1z"/>
    <path id="11" class="fil6" d="M11991 3947c-9,0 -15,-2 -19,-5 -5,-3 -7,-9 -7,-16 0,-3 1,-7 1,-10l25 -114 34 0 -24 111c0,2 0,3 0,3 0,2 0,3 1,4 1,1 3,1 5,1 4,0 8,0 11,-1l-5 23c-4,1 -7,2 -11,3 -3,0 -7,1 -11,1z"/>
    <path id="12" class="fil6" d="M12068 3803l37 0 -6 25 -37 0 6 -25zm-12 66l-15 0 9 -25 46 0 -22 101 -34 0 16 -76z"/>
    <path id="13" class="fil6" d="M12137 3947c-12,0 -21,-3 -27,-9 -7,-5 -10,-14 -10,-25 0,-4 1,-9 2,-15 3,-17 11,-31 21,-41 11,-10 24,-15 40,-15 6,0 10,1 14,2 3,1 7,3 10,6l1 -6 34 0 -21 101 -29 0 0 -9c-10,7 -22,11 -35,11zm16 -25c7,0 14,-3 21,-8l8 -40c-3,-5 -8,-7 -15,-7 -8,0 -15,3 -20,8 -5,5 -8,13 -10,23 -1,4 -2,7 -2,10 0,5 2,9 4,11 3,2 8,3 14,3z"/>
    <path id="14" class="fil6" d="M12244 3844l32 0 -1 9c5,-3 11,-6 18,-8 7,-2 13,-3 20,-3 20,0 31,9 31,26 0,3 -1,7 -2,12l-14 65 -34 0 13 -62c1,-2 1,-5 1,-7 0,-3 -1,-5 -3,-7 -2,-1 -5,-2 -10,-2 -4,0 -8,1 -12,3 -5,1 -8,4 -11,6l-15 69 -34 0 21 -101z"/>
    <path id="15" class="fil6" d="M12386 3947c-8,0 -16,-1 -23,-2 -7,-1 -12,-3 -16,-4l5 -26c5,2 10,3 16,4 6,2 12,2 18,2 6,0 11,0 13,-1 3,0 4,-2 5,-4 0,-2 0,-4 -2,-5 -2,-1 -6,-3 -12,-5l-9 -3c-7,-3 -13,-6 -16,-9 -4,-4 -6,-8 -6,-14 0,-2 0,-5 1,-7 2,-10 7,-18 16,-23 8,-5 20,-8 37,-8 6,0 12,1 18,1 6,1 11,3 15,4l-5 26c-4,-2 -8,-3 -13,-4 -5,-1 -9,-2 -14,-2 -6,0 -11,1 -14,1 -3,1 -5,2 -5,5 -1,2 0,3 2,4 2,1 5,2 10,4 2,0 3,1 4,1 1,1 3,1 4,2 10,3 16,6 20,9 3,4 5,8 5,14 0,2 0,5 -1,9 -2,10 -7,18 -16,23 -8,5 -21,8 -37,8z"/>
   </g>
   <g>
    <g>
     <path class="fil2" d="M9134 2234c36,-52 82,-95 132,-139 32,-29 42,-31 75,-60l402 -291c560,-372 1568,-629 2225,-483l382 114 -397 351 2012 446c104,23 54,-95 -64,-664 -42,-202 -86,-424 -134,-626l-135 -643 -338 288c0,0 0,0 0,0l-406 -203c-349,-158 -731,-247 -1121,-271l-437 0c-940,57 -1873,475 -2454,1195 -50,62 -85,111 -134,171 -125,150 -252,397 -340,573 -120,237 -238,630 -266,952 -7,85 -13,176 -16,270l0 275c6,153 23,306 58,446l43 108c11,-127 85,-413 129,-547 130,-395 496,-1069 784,-1262z"/>
     <path class="fil2" d="M8738 3935c-294,1474 710,2307 2049,2564 1030,198 2063,-7 2883,-676 123,-101 472,-395 503,-512 -35,-51 -792,-829 -862,-843 -158,136 -275,323 -485,494 -1565,1270 -3926,-137 -3329,-2399 -303,152 -692,1041 -759,1372z"/>
    </g>
    <g>
     <path class="fil1 str3" d="M9046 2316c35,-52 81,-95 131,-139 32,-29 42,-31 75,-60l402 -291c561,-372 1568,-629 2225,-484l382 114 -397 352 2012 446c104,23 54,-95 -64,-664 -42,-202 -85,-424 -134,-627l-135 -642 -338 287c0,0 0,0 0,0l-406 -202c-349,-158 -731,-247 -1121,-271l-437 0c-940,56 -1873,475 -2454,1195 -50,61 -85,111 -134,170 -125,151 -252,398 -340,574 -120,237 -238,630 -265,952 -8,85 -14,176 -17,269l0 276c6,153 23,306 58,446l44 108c10,-128 84,-413 128,-548 130,-395 496,-1068 785,-1261z"/>
     <path class="fil1 str3" d="M8650 4017c-295,1474 710,2307 2048,2564 1030,198 2063,-7 2883,-677 123,-100 472,-394 503,-511 -35,-51 -791,-829 -862,-844 -158,136 -275,324 -485,495 -1565,1270 -3926,-137 -3329,-2399 -303,152 -692,1041 -758,1372z"/>
    </g>
   </g>
   <path class="fil3" d="M1484 5781c-20,0 -39,-1 -58,-4 -19,-2 -35,-6 -48,-10l0 -45c14,5 30,8 49,11 18,2 36,3 54,3 27,0 46,-1 57,-4 11,-3 17,-9 17,-19 0,-8 -3,-13 -9,-16 -6,-3 -17,-5 -32,-5l-69 0c-23,0 -40,-4 -52,-12 -11,-9 -17,-21 -17,-36 0,-11 3,-21 9,-30 7,-9 16,-15 29,-20 -29,-14 -43,-38 -43,-74 0,-32 10,-56 29,-71 19,-15 48,-22 88,-22 14,0 30,2 46,5l94 0 -2 38 -43 0c13,12 20,29 20,50 0,28 -8,49 -25,64 -16,16 -41,23 -74,23 -9,0 -19,-1 -32,-2 -11,1 -21,4 -29,8 -8,5 -13,11 -13,19 0,5 3,9 7,11 4,3 11,4 21,4l72 0c25,0 45,5 58,16 14,11 21,27 21,48 0,24 -10,42 -31,53 -21,11 -53,17 -94,17zm4 -211c23,0 39,-4 48,-11 9,-8 14,-21 14,-41 0,-19 -5,-33 -14,-41 -9,-9 -25,-13 -48,-13 -22,0 -38,4 -48,13 -10,8 -15,22 -15,41 0,19 5,32 14,40 10,8 26,12 49,12z"/>
   <path id="1" class="fil3" d="M1682 5331l64 0 0 48 -64 0 0 -48zm5 146l-39 0 5 -45 92 0 0 255 -58 0 0 -210z"/>
   <path id="2" class="fil3" d="M1910 5692c-26,0 -47,-7 -60,-21 -14,-14 -21,-34 -21,-60l0 -133 -37 0 0 -46 37 0 0 -58 58 -18 0 76 68 0 -4 46 -64 0 0 130c0,14 4,25 10,31 7,5 18,8 34,8 9,0 20,-1 30,-5l0 41c-14,6 -31,9 -51,9z"/>
   <path id="3" class="fil3" d="M2008 5325l58 0 0 132c12,-9 25,-17 41,-22 15,-5 32,-8 51,-8 32,0 56,8 71,23 16,15 23,39 23,72l0 165 -57 0 0 -162c0,-20 -5,-34 -13,-42 -8,-8 -23,-11 -44,-11 -13,0 -26,2 -39,8 -13,5 -24,13 -33,22l0 185 -58 0 0 -362z"/>
   <path id="4" class="fil3" d="M2410 5692c-31,0 -54,-9 -70,-26 -17,-17 -25,-41 -25,-73l0 -161 59 0 0 161c0,19 4,33 14,42 9,8 23,13 42,13 14,0 27,-3 40,-8 12,-5 22,-12 32,-22l0 -186 58 0 0 255 -53 0 -3 -27c-27,21 -58,32 -94,32z"/>
   <path id="5" class="fil3" d="M2767 5692c-18,0 -34,-2 -47,-7 -14,-5 -27,-13 -39,-24l-3 26 -50 0 0 -362 58 0 0 124c22,-15 49,-22 80,-22 38,0 67,11 87,32 20,21 30,54 30,98 0,45 -10,79 -30,101 -20,23 -49,34 -86,34zm-15 -44c25,0 44,-7 55,-22 11,-15 17,-38 17,-69 0,-31 -6,-53 -17,-66 -12,-13 -31,-19 -56,-19 -27,0 -48,7 -65,22l0 127c17,18 39,27 66,27z"/>
   <polygon id="6" class="fil3" points="2929,5641 2978,5641 2978,5687 2929,5687 "/>
   <path id="7" class="fil3" d="M3161 5692c-45,0 -79,-11 -102,-34 -22,-22 -34,-55 -34,-99 0,-43 12,-76 37,-98 25,-23 59,-34 102,-34 17,0 32,1 44,4 12,2 23,6 35,12l0 43c-19,-9 -41,-14 -68,-14 -30,0 -53,7 -68,20 -15,14 -23,36 -23,67 0,31 7,54 21,68 14,13 37,20 69,20 26,0 49,-4 69,-14l0 44c-23,10 -51,15 -82,15z"/>
   <path id="8" class="fil3" d="M3403 5692c-88,0 -132,-44 -132,-133 0,-88 44,-132 132,-132 89,0 133,44 133,132 0,89 -44,133 -133,133zm0 -49c27,0 46,-7 57,-20 12,-13 17,-34 17,-64 0,-29 -5,-50 -17,-63 -11,-13 -30,-19 -57,-19 -26,0 -45,6 -56,19 -12,13 -17,34 -17,63 0,30 5,51 17,64 11,13 30,20 56,20z"/>
   <path id="9" class="fil3" d="M3593 5432l54 0 2 27c27,-21 57,-32 90,-32 17,0 31,3 42,8 10,6 18,14 24,25 13,-10 27,-18 42,-24 16,-6 34,-9 54,-9 29,0 51,8 65,23 14,15 21,38 21,69l0 168 -58 0 0 -162c0,-20 -4,-33 -12,-41 -8,-8 -22,-12 -40,-12 -12,0 -24,2 -35,6 -11,4 -21,11 -28,19 2,7 3,16 3,27l0 163 -55 0 0 -162c0,-19 -3,-33 -9,-41 -7,-8 -19,-12 -37,-12 -22,0 -44,10 -66,30l0 185 -57 0 0 -255z"/>
   <polygon id="10" class="fil3" points="4167,5332 4226,5332 4101,5687 4041,5687 "/>
   <path id="11" class="fil3" d="M4362 5692c-25,0 -47,-7 -64,-20 -17,-14 -26,-33 -26,-58 0,-25 9,-45 26,-59 17,-15 42,-22 76,-22l82 0 0 -11c0,-13 -2,-22 -6,-29 -4,-7 -10,-12 -21,-16 -10,-3 -24,-4 -42,-4 -30,0 -58,4 -85,13l0 -43c13,-5 27,-9 43,-12 17,-3 34,-4 52,-4 38,0 67,8 86,23 19,15 29,40 29,73l0 164 -50 0 -4 -26c-11,10 -24,18 -39,23 -16,5 -34,8 -57,8zm16 -42c17,0 32,-3 45,-8 13,-6 24,-14 33,-25l0 -44 -81 0c-17,0 -29,3 -37,10 -8,6 -11,16 -11,30 0,13 4,22 12,28 9,6 22,9 39,9z"/>
   <path id="12" class="fil3" d="M4679 5781c-19,0 -39,-1 -57,-4 -19,-2 -35,-6 -48,-10l0 -45c14,5 30,8 49,11 18,2 36,3 54,3 27,0 46,-1 57,-4 11,-3 17,-9 17,-19 0,-8 -3,-13 -9,-16 -6,-3 -17,-5 -33,-5l-68 0c-23,0 -40,-4 -52,-12 -12,-9 -17,-21 -17,-36 0,-11 3,-21 9,-30 7,-9 16,-15 29,-20 -29,-14 -43,-38 -43,-74 0,-32 9,-56 29,-71 19,-15 48,-22 88,-22 14,0 30,2 46,5l94 0 -2 38 -43 0c13,12 20,29 20,50 0,28 -8,49 -25,64 -17,16 -41,23 -74,23 -9,0 -19,-1 -32,-2 -11,1 -21,4 -29,8 -9,5 -13,11 -13,19 0,5 2,9 7,11 4,3 11,4 21,4l71 0c26,0 45,5 59,16 14,11 21,27 21,48 0,24 -11,42 -32,53 -20,11 -52,17 -94,17zm5 -211c23,0 39,-4 48,-11 9,-8 14,-21 14,-41 0,-19 -5,-33 -14,-41 -9,-9 -25,-13 -48,-13 -23,0 -39,4 -48,13 -10,8 -15,22 -15,41 0,19 5,32 14,40 10,8 26,12 49,12z"/>
   <path id="13" class="fil3" d="M4870 5478l-37 0 0 -46 37 0 0 -31c0,-25 8,-46 22,-61 14,-16 35,-23 62,-23 19,0 36,3 52,9l0 42c-11,-4 -22,-6 -33,-6 -17,0 -29,3 -35,8 -7,6 -10,17 -10,32l0 30 67 0 -3 46 -64 0 0 209 -58 0 0 -209z"/>
   <path id="14" class="fil3" d="M5121 5692c-27,0 -47,-7 -61,-21 -13,-14 -20,-34 -20,-60l0 -133 -38 0 0 -46 38 0 0 -58 58 -18 0 76 67 0 -4 46 -63 0 0 130c0,14 3,25 10,31 6,5 17,8 33,8 10,0 20,-1 31,-5l0 41c-14,6 -31,9 -51,9z"/>
   <path id="15" class="fil3" d="M5347 5692c-45,0 -80,-11 -104,-33 -23,-22 -35,-56 -35,-100 0,-42 10,-74 31,-97 21,-23 53,-35 94,-35 38,0 66,10 86,30 20,19 30,45 30,78l0 48 -186 0c3,24 12,41 27,50 14,10 37,14 69,14 13,0 26,-1 39,-3 14,-3 25,-6 36,-10l0 43c-23,10 -52,15 -87,15zm51 -148l0 -17c0,-18 -5,-32 -15,-42 -10,-9 -26,-14 -48,-14 -27,0 -45,6 -56,17 -10,12 -16,30 -16,56l135 0z"/>
   <path id="16" class="fil3" d="M5631 5692c-45,0 -78,-11 -101,-34 -23,-22 -34,-55 -34,-99 0,-43 12,-76 37,-98 24,-23 58,-34 101,-34 18,0 32,1 44,4 12,2 24,6 35,12l0 43c-18,-9 -41,-14 -67,-14 -31,0 -54,7 -69,20 -15,14 -23,36 -23,67 0,31 8,54 22,68 14,13 37,20 69,20 25,0 48,-4 69,-14l0 44c-24,10 -51,15 -83,15z"/>
   <path id="17" class="fil3" d="M5771 5325l58 0 0 132c11,-9 25,-17 41,-22 15,-5 32,-8 51,-8 32,0 56,8 71,23 15,15 23,39 23,72l0 165 -58 0 0 -162c0,-20 -4,-34 -12,-42 -9,-8 -23,-11 -44,-11 -13,0 -26,2 -39,8 -13,5 -24,13 -33,22l0 185 -58 0 0 -362z"/>
   <path id="18" class="fil7 str4" d="M1484 5781c-20,0 -39,-1 -58,-4 -19,-2 -35,-6 -48,-10l0 -45c14,5 30,8 49,11 18,2 36,3 54,3 27,0 46,-1 57,-4 11,-3 17,-9 17,-19 0,-8 -3,-13 -9,-16 -6,-3 -17,-5 -32,-5l-69 0c-23,0 -40,-4 -52,-12 -11,-9 -17,-21 -17,-36 0,-11 3,-21 9,-30 7,-9 16,-15 29,-20 -29,-14 -43,-38 -43,-74 0,-32 10,-56 29,-71 19,-15 48,-22 88,-22 14,0 30,2 46,5l94 0 -2 38 -43 0c13,12 20,29 20,50 0,28 -8,49 -25,64 -16,16 -41,23 -74,23 -9,0 -19,-1 -32,-2 -11,1 -21,4 -29,8 -8,5 -13,11 -13,19 0,5 3,9 7,11 4,3 11,4 21,4l72 0c25,0 45,5 58,16 14,11 21,27 21,48 0,24 -10,42 -31,53 -21,11 -53,17 -94,17zm4 -211c23,0 39,-4 48,-11 9,-8 14,-21 14,-41 0,-19 -5,-33 -14,-41 -9,-9 -25,-13 -48,-13 -22,0 -38,4 -48,13 -10,8 -15,22 -15,41 0,19 5,32 14,40 10,8 26,12 49,12z"/>
   <path id="19" class="fil7 str4" d="M1682 5331l64 0 0 48 -64 0 0 -48zm5 146l-39 0 5 -45 92 0 0 255 -58 0 0 -210z"/>
   <path id="20" class="fil7 str4" d="M1910 5692c-26,0 -47,-7 -60,-21 -14,-14 -21,-34 -21,-60l0 -133 -37 0 0 -46 37 0 0 -58 58 -18 0 76 68 0 -4 46 -64 0 0 130c0,14 4,25 10,31 7,5 18,8 34,8 9,0 20,-1 30,-5l0 41c-14,6 -31,9 -51,9z"/>
   <path id="21" class="fil7 str4" d="M2008 5325l58 0 0 132c12,-9 25,-17 41,-22 15,-5 32,-8 51,-8 32,0 56,8 71,23 16,15 23,39 23,72l0 165 -57 0 0 -162c0,-20 -5,-34 -13,-42 -8,-8 -23,-11 -44,-11 -13,0 -26,2 -39,8 -13,5 -24,13 -33,22l0 185 -58 0 0 -362z"/>
   <path id="22" class="fil7 str4" d="M2410 5692c-31,0 -54,-9 -70,-26 -17,-17 -25,-41 -25,-73l0 -161 59 0 0 161c0,19 4,33 14,42 9,8 23,13 42,13 14,0 27,-3 40,-8 12,-5 22,-12 32,-22l0 -186 58 0 0 255 -53 0 -3 -27c-27,21 -58,32 -94,32z"/>
   <path id="23" class="fil7 str4" d="M2767 5692c-18,0 -34,-2 -47,-7 -14,-5 -27,-13 -39,-24l-3 26 -50 0 0 -362 58 0 0 124c22,-15 49,-22 80,-22 38,0 67,11 87,32 20,21 30,54 30,98 0,45 -10,79 -30,101 -20,23 -49,34 -86,34zm-15 -44c25,0 44,-7 55,-22 11,-15 17,-38 17,-69 0,-31 -6,-53 -17,-66 -12,-13 -31,-19 -56,-19 -27,0 -48,7 -65,22l0 127c17,18 39,27 66,27z"/>
   <polygon id="24" class="fil7 str4" points="2929,5641 2978,5641 2978,5687 2929,5687 "/>
   <path id="25" class="fil7 str4" d="M3161 5692c-45,0 -79,-11 -102,-34 -22,-22 -34,-55 -34,-99 0,-43 12,-76 37,-98 25,-23 59,-34 102,-34 17,0 32,1 44,4 12,2 23,6 35,12l0 43c-19,-9 -41,-14 -68,-14 -30,0 -53,7 -68,20 -15,14 -23,36 -23,67 0,31 7,54 21,68 14,13 37,20 69,20 26,0 49,-4 69,-14l0 44c-23,10 -51,15 -82,15z"/>
   <path id="26" class="fil7 str4" d="M3403 5692c-88,0 -132,-44 -132,-133 0,-88 44,-132 132,-132 89,0 133,44 133,132 0,89 -44,133 -133,133zm0 -49c27,0 46,-7 57,-20 12,-13 17,-34 17,-64 0,-29 -5,-50 -17,-63 -11,-13 -30,-19 -57,-19 -26,0 -45,6 -56,19 -12,13 -17,34 -17,63 0,30 5,51 17,64 11,13 30,20 56,20z"/>
   <path id="27" class="fil7 str4" d="M3593 5432l54 0 2 27c27,-21 57,-32 90,-32 17,0 31,3 42,8 10,6 18,14 24,25 13,-10 27,-18 42,-24 16,-6 34,-9 54,-9 29,0 51,8 65,23 14,15 21,38 21,69l0 168 -58 0 0 -162c0,-20 -4,-33 -12,-41 -8,-8 -22,-12 -40,-12 -12,0 -24,2 -35,6 -11,4 -21,11 -28,19 2,7 3,16 3,27l0 163 -55 0 0 -162c0,-19 -3,-33 -9,-41 -7,-8 -19,-12 -37,-12 -22,0 -44,10 -66,30l0 185 -57 0 0 -255z"/>
   <polygon id="28" class="fil7 str4" points="4167,5332 4226,5332 4101,5687 4041,5687 "/>
   <path id="29" class="fil7 str4" d="M4362 5692c-25,0 -47,-7 -64,-20 -17,-14 -26,-33 -26,-58 0,-25 9,-45 26,-59 17,-15 42,-22 76,-22l82 0 0 -11c0,-13 -2,-22 -6,-29 -4,-7 -10,-12 -21,-16 -10,-3 -24,-4 -42,-4 -30,0 -58,4 -85,13l0 -43c13,-5 27,-9 43,-12 17,-3 34,-4 52,-4 38,0 67,8 86,23 19,15 29,40 29,73l0 164 -50 0 -4 -26c-11,10 -24,18 -39,23 -16,5 -34,8 -57,8zm16 -42c17,0 32,-3 45,-8 13,-6 24,-14 33,-25l0 -44 -81 0c-17,0 -29,3 -37,10 -8,6 -11,16 -11,30 0,13 4,22 12,28 9,6 22,9 39,9z"/>
   <path id="30" class="fil7 str4" d="M4679 5781c-19,0 -39,-1 -57,-4 -19,-2 -35,-6 -48,-10l0 -45c14,5 30,8 49,11 18,2 36,3 54,3 27,0 46,-1 57,-4 11,-3 17,-9 17,-19 0,-8 -3,-13 -9,-16 -6,-3 -17,-5 -33,-5l-68 0c-23,0 -40,-4 -52,-12 -12,-9 -17,-21 -17,-36 0,-11 3,-21 9,-30 7,-9 16,-15 29,-20 -29,-14 -43,-38 -43,-74 0,-32 9,-56 29,-71 19,-15 48,-22 88,-22 14,0 30,2 46,5l94 0 -2 38 -43 0c13,12 20,29 20,50 0,28 -8,49 -25,64 -17,16 -41,23 -74,23 -9,0 -19,-1 -32,-2 -11,1 -21,4 -29,8 -9,5 -13,11 -13,19 0,5 2,9 7,11 4,3 11,4 21,4l71 0c26,0 45,5 59,16 14,11 21,27 21,48 0,24 -11,42 -32,53 -20,11 -52,17 -94,17zm5 -211c23,0 39,-4 48,-11 9,-8 14,-21 14,-41 0,-19 -5,-33 -14,-41 -9,-9 -25,-13 -48,-13 -23,0 -39,4 -48,13 -10,8 -15,22 -15,41 0,19 5,32 14,40 10,8 26,12 49,12z"/>
   <path id="31" class="fil7 str4" d="M4870 5478l-37 0 0 -46 37 0 0 -31c0,-25 8,-46 22,-61 14,-16 35,-23 62,-23 19,0 36,3 52,9l0 42c-11,-4 -22,-6 -33,-6 -17,0 -29,3 -35,8 -7,6 -10,17 -10,32l0 30 67 0 -3 46 -64 0 0 209 -58 0 0 -209z"/>
   <path id="32" class="fil7 str4" d="M5121 5692c-27,0 -47,-7 -61,-21 -13,-14 -20,-34 -20,-60l0 -133 -38 0 0 -46 38 0 0 -58 58 -18 0 76 67 0 -4 46 -63 0 0 130c0,14 3,25 10,31 6,5 17,8 33,8 10,0 20,-1 31,-5l0 41c-14,6 -31,9 -51,9z"/>
   <path id="33" class="fil7 str4" d="M5347 5692c-45,0 -80,-11 -104,-33 -23,-22 -35,-56 -35,-100 0,-42 10,-74 31,-97 21,-23 53,-35 94,-35 38,0 66,10 86,30 20,19 30,45 30,78l0 48 -186 0c3,24 12,41 27,50 14,10 37,14 69,14 13,0 26,-1 39,-3 14,-3 25,-6 36,-10l0 43c-23,10 -52,15 -87,15zm51 -148l0 -17c0,-18 -5,-32 -15,-42 -10,-9 -26,-14 -48,-14 -27,0 -45,6 -56,17 -10,12 -16,30 -16,56l135 0z"/>
   <path id="34" class="fil7 str4" d="M5631 5692c-45,0 -78,-11 -101,-34 -23,-22 -34,-55 -34,-99 0,-43 12,-76 37,-98 24,-23 58,-34 101,-34 18,0 32,1 44,4 12,2 24,6 35,12l0 43c-18,-9 -41,-14 -67,-14 -31,0 -54,7 -69,20 -15,14 -23,36 -23,67 0,31 8,54 22,68 14,13 37,20 69,20 25,0 48,-4 69,-14l0 44c-24,10 -51,15 -83,15z"/>
   <path id="35" class="fil7 str4" d="M5771 5325l58 0 0 132c11,-9 25,-17 41,-22 15,-5 32,-8 51,-8 32,0 56,8 71,23 15,15 23,39 23,72l0 165 -58 0 0 -162c0,-20 -4,-34 -12,-42 -9,-8 -23,-11 -44,-11 -13,0 -26,2 -39,8 -13,5 -24,13 -33,22l0 185 -58 0 0 -362z"/>
   <path class="fil3" d="M15869 5783c-20,0 -39,-1 -58,-4 -18,-2 -34,-6 -47,-10l0 -45c13,4 30,8 48,10 19,3 37,4 54,4 27,0 47,-1 58,-4 11,-3 16,-10 16,-19 0,-8 -3,-13 -9,-16 -5,-3 -16,-5 -32,-5l-69 0c-22,0 -39,-4 -51,-12 -12,-9 -18,-21 -18,-37 0,-11 3,-21 10,-29 6,-9 16,-16 28,-20 -28,-14 -43,-39 -43,-74 0,-33 10,-56 29,-71 20,-15 49,-22 88,-22 15,0 30,2 47,5l93 0 -1 38 -43 0c13,12 20,29 20,50 0,28 -9,49 -25,64 -17,15 -42,23 -75,23 -8,0 -19,-1 -31,-3 -12,1 -22,4 -30,9 -8,5 -12,11 -12,19 0,5 2,9 6,11 5,3 12,4 22,4l71 0c25,0 45,5 59,16 14,11 20,27 20,48 0,24 -10,42 -31,53 -21,11 -52,17 -94,17zm4 -211c24,0 40,-4 49,-12 9,-7 13,-21 13,-40 0,-19 -4,-33 -13,-42 -10,-8 -26,-12 -49,-12 -22,0 -38,4 -48,12 -10,9 -14,23 -14,42 0,19 4,32 14,40 9,8 25,12 48,12z"/>
   <path id="1" class="fil3" d="M16067 5333l64 0 0 48 -64 0 0 -48zm5 146l-38 0 5 -45 92 0 0 254 -59 0 0 -209z"/>
   <path id="2" class="fil3" d="M16296 5694c-27,0 -47,-7 -61,-21 -13,-15 -20,-34 -20,-60l0 -133 -38 0 0 -46 38 0 0 -58 58 -18 0 76 67 0 -3 46 -64 0 0 130c0,14 3,24 10,30 6,6 17,9 33,9 10,0 20,-2 31,-5l0 41c-14,6 -31,9 -51,9z"/>
   <path id="3" class="fil3" d="M16393 5327l59 0 0 132c11,-9 25,-17 40,-22 16,-5 33,-8 52,-8 32,0 56,8 71,23 15,15 23,39 23,72l0 164 -58 0 0 -162c0,-19 -4,-33 -13,-41 -8,-8 -23,-12 -43,-12 -13,0 -26,3 -39,9 -14,5 -25,12 -33,21l0 185 -59 0 0 -361z"/>
   <path id="4" class="fil3" d="M16795 5694c-30,0 -54,-9 -70,-26 -16,-17 -24,-41 -24,-73l0 -161 58 0 0 161c0,18 5,32 14,41 9,9 24,14 43,14 14,0 27,-3 39,-8 12,-5 23,-12 32,-22l0 -186 58 0 0 254 -53 0 -3 -26c-26,21 -58,32 -94,32z"/>
   <path id="5" class="fil3" d="M17153 5694c-19,0 -34,-3 -48,-7 -14,-5 -26,-13 -38,-24l-3 25 -51 0 0 -361 59 0 0 124c22,-15 48,-22 80,-22 37,0 66,10 86,32 20,21 31,54 31,98 0,45 -11,79 -31,101 -20,23 -48,34 -85,34zm-16 -44c26,0 44,-8 56,-22 11,-15 17,-38 17,-69 0,-31 -6,-53 -18,-66 -11,-13 -30,-20 -56,-20 -26,0 -48,8 -64,22l0 128c17,18 38,27 65,27z"/>
   <polygon id="6" class="fil3" points="17315,5643 17364,5643 17364,5688 17315,5688 "/>
   <path id="7" class="fil3" d="M17546 5694c-44,0 -78,-12 -101,-34 -23,-23 -34,-55 -34,-99 0,-43 12,-76 37,-99 24,-22 58,-33 102,-33 17,0 31,1 43,4 12,2 24,6 35,11l0 44c-18,-9 -41,-14 -67,-14 -31,0 -53,7 -69,20 -15,14 -22,36 -22,67 0,31 7,53 21,67 14,14 37,21 69,21 25,0 48,-5 69,-14l0 44c-24,10 -51,15 -83,15z"/>
   <path id="8" class="fil3" d="M17789 5694c-89,0 -133,-44 -133,-133 0,-88 44,-132 133,-132 88,0 133,44 133,132 0,89 -45,133 -133,133zm0 -50c26,0 46,-6 57,-19 11,-13 17,-34 17,-64 0,-29 -6,-50 -17,-63 -11,-13 -31,-19 -57,-19 -27,0 -46,6 -57,19 -11,13 -17,34 -17,63 0,30 6,51 17,64 11,13 30,19 57,19z"/>
   <path id="9" class="fil3" d="M17978 5434l54 0 3 27c27,-21 57,-32 89,-32 18,0 32,3 42,8 11,6 19,14 24,25 13,-10 27,-18 43,-24 15,-6 33,-9 53,-9 30,0 51,7 65,22 14,15 21,38 21,70l0 167 -57 0 0 -162c0,-19 -4,-33 -13,-41 -8,-8 -21,-12 -40,-12 -12,0 -24,3 -35,7 -11,4 -20,11 -28,19 2,7 3,16 3,26l0 163 -54 0 0 -161c0,-19 -3,-33 -10,-41 -7,-9 -19,-13 -36,-13 -23,0 -45,10 -66,30l0 185 -58 0 0 -254z"/>
   <polygon id="10" class="fil3" points="18552,5333 18612,5333 18486,5688 18427,5688 "/>
   <path id="11" class="fil3" d="M18748 5694c-26,0 -47,-7 -64,-20 -18,-14 -26,-33 -26,-58 0,-25 8,-45 25,-59 17,-15 43,-22 77,-22l81 0 0 -11c0,-13 -2,-22 -5,-29 -4,-7 -11,-13 -21,-16 -10,-3 -24,-5 -43,-5 -30,0 -58,5 -84,14l0 -44c12,-4 26,-8 43,-11 16,-3 34,-4 52,-4 38,0 66,8 85,23 19,15 29,40 29,73l0 163 -50 0 -4 -25c-10,10 -23,18 -39,23 -15,5 -34,8 -56,8zm16 -42c16,0 31,-3 45,-9 13,-5 24,-13 32,-24l0 -44 -80 0c-17,0 -30,3 -37,9 -8,7 -12,17 -12,31 0,13 4,22 13,28 8,6 21,9 39,9z"/>
   <path id="12" class="fil3" d="M19065 5783c-20,0 -39,-1 -58,-4 -19,-2 -34,-6 -47,-10l0 -45c13,4 29,8 48,10 19,3 37,4 54,4 27,0 46,-1 58,-4 11,-3 16,-10 16,-19 0,-8 -3,-13 -9,-16 -6,-3 -16,-5 -32,-5l-69 0c-22,0 -39,-4 -51,-12 -12,-9 -18,-21 -18,-37 0,-11 3,-21 10,-29 6,-9 16,-16 28,-20 -28,-14 -43,-39 -43,-74 0,-33 10,-56 29,-71 20,-15 49,-22 88,-22 14,0 30,2 47,5l93 0 -1 38 -43 0c13,12 19,29 19,50 0,28 -8,49 -24,64 -17,15 -42,23 -75,23 -8,0 -19,-1 -31,-3 -12,1 -22,4 -30,9 -8,5 -12,11 -12,19 0,5 2,9 6,11 5,3 12,4 22,4l71 0c25,0 45,5 59,16 13,11 20,27 20,48 0,24 -10,42 -31,53 -21,11 -52,17 -94,17zm4 -211c23,0 40,-4 49,-12 9,-7 13,-21 13,-40 0,-19 -4,-33 -14,-42 -9,-8 -25,-12 -48,-12 -22,0 -38,4 -48,12 -10,9 -15,23 -15,42 0,19 5,32 15,40 9,8 25,12 48,12z"/>
   <path id="13" class="fil3" d="M19256 5480l-37 0 0 -46 37 0 0 -31c0,-26 7,-46 21,-62 15,-15 36,-23 63,-23 18,0 36,3 52,10l0 41c-11,-4 -22,-6 -34,-6 -17,0 -28,3 -35,9 -6,6 -9,17 -9,32l0 30 66 0 -3 46 -63 0 0 208 -58 0 0 -208z"/>
   <path id="14" class="fil3" d="M19506 5694c-27,0 -47,-7 -60,-21 -14,-15 -21,-34 -21,-60l0 -133 -37 0 0 -46 37 0 0 -58 58 -18 0 76 68 0 -4 46 -64 0 0 130c0,14 3,24 10,30 7,6 18,9 34,9 9,0 19,-2 30,-5l0 41c-14,6 -31,9 -51,9z"/>
   <path id="15" class="fil3" d="M19732 5694c-45,0 -79,-11 -103,-33 -24,-23 -36,-56 -36,-100 0,-42 11,-75 32,-98 21,-23 52,-34 94,-34 37,0 66,10 86,29 20,20 30,46 30,79l0 47 -186 0c3,25 11,42 26,51 15,10 38,14 69,14 13,0 26,-1 40,-4 13,-2 25,-5 35,-9l0 43c-22,10 -51,15 -87,15zm51 -148l0 -17c0,-19 -5,-32 -15,-42 -10,-9 -26,-14 -48,-14 -26,0 -45,6 -55,17 -11,11 -16,30 -16,56l134 0z"/>
   <path id="16" class="fil3" d="M20017 5694c-45,0 -79,-12 -102,-34 -23,-23 -34,-55 -34,-99 0,-43 12,-76 37,-99 25,-22 59,-33 102,-33 17,0 32,1 44,4 12,2 23,6 35,11l0 44c-19,-9 -41,-14 -68,-14 -30,0 -53,7 -68,20 -15,14 -23,36 -23,67 0,31 7,53 21,67 14,14 37,21 69,21 25,0 49,-5 69,-14l0 44c-23,10 -51,15 -82,15z"/>
   <path id="17" class="fil3" d="M20156 5327l59 0 0 132c11,-9 24,-17 40,-22 16,-5 33,-8 51,-8 32,0 56,8 72,23 15,15 23,39 23,72l0 164 -58 0 0 -162c0,-19 -5,-33 -13,-41 -8,-8 -23,-12 -44,-12 -12,0 -26,3 -39,9 -13,5 -24,12 -32,21l0 185 -59 0 0 -361z"/>
   <path id="18" class="fil7 str4" d="M15869 5783c-20,0 -39,-1 -58,-4 -18,-2 -34,-6 -47,-10l0 -45c13,4 30,8 48,10 19,3 37,4 54,4 27,0 47,-1 58,-4 11,-3 16,-10 16,-19 0,-8 -3,-13 -9,-16 -5,-3 -16,-5 -32,-5l-69 0c-22,0 -39,-4 -51,-12 -12,-9 -18,-21 -18,-37 0,-11 3,-21 10,-29 6,-9 16,-16 28,-20 -28,-14 -43,-39 -43,-74 0,-33 10,-56 29,-71 20,-15 49,-22 88,-22 15,0 30,2 47,5l93 0 -1 38 -43 0c13,12 20,29 20,50 0,28 -9,49 -25,64 -17,15 -42,23 -75,23 -8,0 -19,-1 -31,-3 -12,1 -22,4 -30,9 -8,5 -12,11 -12,19 0,5 2,9 6,11 5,3 12,4 22,4l71 0c25,0 45,5 59,16 14,11 20,27 20,48 0,24 -10,42 -31,53 -21,11 -52,17 -94,17zm4 -211c24,0 40,-4 49,-12 9,-7 13,-21 13,-40 0,-19 -4,-33 -13,-42 -10,-8 -26,-12 -49,-12 -22,0 -38,4 -48,12 -10,9 -14,23 -14,42 0,19 4,32 14,40 9,8 25,12 48,12z"/>
   <path id="19" class="fil7 str4" d="M16067 5333l64 0 0 48 -64 0 0 -48zm5 146l-38 0 5 -45 92 0 0 254 -59 0 0 -209z"/>
   <path id="20" class="fil7 str4" d="M16296 5694c-27,0 -47,-7 -61,-21 -13,-15 -20,-34 -20,-60l0 -133 -38 0 0 -46 38 0 0 -58 58 -18 0 76 67 0 -3 46 -64 0 0 130c0,14 3,24 10,30 6,6 17,9 33,9 10,0 20,-2 31,-5l0 41c-14,6 -31,9 -51,9z"/>
   <path id="21" class="fil7 str4" d="M16393 5327l59 0 0 132c11,-9 25,-17 40,-22 16,-5 33,-8 52,-8 32,0 56,8 71,23 15,15 23,39 23,72l0 164 -58 0 0 -162c0,-19 -4,-33 -13,-41 -8,-8 -23,-12 -43,-12 -13,0 -26,3 -39,9 -14,5 -25,12 -33,21l0 185 -59 0 0 -361z"/>
   <path id="22" class="fil7 str4" d="M16795 5694c-30,0 -54,-9 -70,-26 -16,-17 -24,-41 -24,-73l0 -161 58 0 0 161c0,18 5,32 14,41 9,9 24,14 43,14 14,0 27,-3 39,-8 12,-5 23,-12 32,-22l0 -186 58 0 0 254 -53 0 -3 -26c-26,21 -58,32 -94,32z"/>
   <path id="23" class="fil7 str4" d="M17153 5694c-19,0 -34,-3 -48,-7 -14,-5 -26,-13 -38,-24l-3 25 -51 0 0 -361 59 0 0 124c22,-15 48,-22 80,-22 37,0 66,10 86,32 20,21 31,54 31,98 0,45 -11,79 -31,101 -20,23 -48,34 -85,34zm-16 -44c26,0 44,-8 56,-22 11,-15 17,-38 17,-69 0,-31 -6,-53 -18,-66 -11,-13 -30,-20 -56,-20 -26,0 -48,8 -64,22l0 128c17,18 38,27 65,27z"/>
   <polygon id="24" class="fil7 str4" points="17315,5643 17364,5643 17364,5688 17315,5688 "/>
   <path id="25" class="fil7 str4" d="M17546 5694c-44,0 -78,-12 -101,-34 -23,-23 -34,-55 -34,-99 0,-43 12,-76 37,-99 24,-22 58,-33 102,-33 17,0 31,1 43,4 12,2 24,6 35,11l0 44c-18,-9 -41,-14 -67,-14 -31,0 -53,7 -69,20 -15,14 -22,36 -22,67 0,31 7,53 21,67 14,14 37,21 69,21 25,0 48,-5 69,-14l0 44c-24,10 -51,15 -83,15z"/>
   <path id="26" class="fil7 str4" d="M17789 5694c-89,0 -133,-44 -133,-133 0,-88 44,-132 133,-132 88,0 133,44 133,132 0,89 -45,133 -133,133zm0 -50c26,0 46,-6 57,-19 11,-13 17,-34 17,-64 0,-29 -6,-50 -17,-63 -11,-13 -31,-19 -57,-19 -27,0 -46,6 -57,19 -11,13 -17,34 -17,63 0,30 6,51 17,64 11,13 30,19 57,19z"/>
   <path id="27" class="fil7 str4" d="M17978 5434l54 0 3 27c27,-21 57,-32 89,-32 18,0 32,3 42,8 11,6 19,14 24,25 13,-10 27,-18 43,-24 15,-6 33,-9 53,-9 30,0 51,7 65,22 14,15 21,38 21,70l0 167 -57 0 0 -162c0,-19 -4,-33 -13,-41 -8,-8 -21,-12 -40,-12 -12,0 -24,3 -35,7 -11,4 -20,11 -28,19 2,7 3,16 3,26l0 163 -54 0 0 -161c0,-19 -3,-33 -10,-41 -7,-9 -19,-13 -36,-13 -23,0 -45,10 -66,30l0 185 -58 0 0 -254z"/>
   <polygon id="28" class="fil7 str4" points="18552,5333 18612,5333 18486,5688 18427,5688 "/>
   <path id="29" class="fil7 str4" d="M18748 5694c-26,0 -47,-7 -64,-20 -18,-14 -26,-33 -26,-58 0,-25 8,-45 25,-59 17,-15 43,-22 77,-22l81 0 0 -11c0,-13 -2,-22 -5,-29 -4,-7 -11,-13 -21,-16 -10,-3 -24,-5 -43,-5 -30,0 -58,5 -84,14l0 -44c12,-4 26,-8 43,-11 16,-3 34,-4 52,-4 38,0 66,8 85,23 19,15 29,40 29,73l0 163 -50 0 -4 -25c-10,10 -23,18 -39,23 -15,5 -34,8 -56,8zm16 -42c16,0 31,-3 45,-9 13,-5 24,-13 32,-24l0 -44 -80 0c-17,0 -30,3 -37,9 -8,7 -12,17 -12,31 0,13 4,22 13,28 8,6 21,9 39,9z"/>
   <path id="30" class="fil7 str4" d="M19065 5783c-20,0 -39,-1 -58,-4 -19,-2 -34,-6 -47,-10l0 -45c13,4 29,8 48,10 19,3 37,4 54,4 27,0 46,-1 58,-4 11,-3 16,-10 16,-19 0,-8 -3,-13 -9,-16 -6,-3 -16,-5 -32,-5l-69 0c-22,0 -39,-4 -51,-12 -12,-9 -18,-21 -18,-37 0,-11 3,-21 10,-29 6,-9 16,-16 28,-20 -28,-14 -43,-39 -43,-74 0,-33 10,-56 29,-71 20,-15 49,-22 88,-22 14,0 30,2 47,5l93 0 -1 38 -43 0c13,12 19,29 19,50 0,28 -8,49 -24,64 -17,15 -42,23 -75,23 -8,0 -19,-1 -31,-3 -12,1 -22,4 -30,9 -8,5 -12,11 -12,19 0,5 2,9 6,11 5,3 12,4 22,4l71 0c25,0 45,5 59,16 13,11 20,27 20,48 0,24 -10,42 -31,53 -21,11 -52,17 -94,17zm4 -211c23,0 40,-4 49,-12 9,-7 13,-21 13,-40 0,-19 -4,-33 -14,-42 -9,-8 -25,-12 -48,-12 -22,0 -38,4 -48,12 -10,9 -15,23 -15,42 0,19 5,32 15,40 9,8 25,12 48,12z"/>
   <path id="31" class="fil7 str4" d="M19256 5480l-37 0 0 -46 37 0 0 -31c0,-26 7,-46 21,-62 15,-15 36,-23 63,-23 18,0 36,3 52,10l0 41c-11,-4 -22,-6 -34,-6 -17,0 -28,3 -35,9 -6,6 -9,17 -9,32l0 30 66 0 -3 46 -63 0 0 208 -58 0 0 -208z"/>
   <path id="32" class="fil7 str4" d="M19506 5694c-27,0 -47,-7 -60,-21 -14,-15 -21,-34 -21,-60l0 -133 -37 0 0 -46 37 0 0 -58 58 -18 0 76 68 0 -4 46 -64 0 0 130c0,14 3,24 10,30 7,6 18,9 34,9 9,0 19,-2 30,-5l0 41c-14,6 -31,9 -51,9z"/>
   <path id="33" class="fil7 str4" d="M19732 5694c-45,0 -79,-11 -103,-33 -24,-23 -36,-56 -36,-100 0,-42 11,-75 32,-98 21,-23 52,-34 94,-34 37,0 66,10 86,29 20,20 30,46 30,79l0 47 -186 0c3,25 11,42 26,51 15,10 38,14 69,14 13,0 26,-1 40,-4 13,-2 25,-5 35,-9l0 43c-22,10 -51,15 -87,15zm51 -148l0 -17c0,-19 -5,-32 -15,-42 -10,-9 -26,-14 -48,-14 -26,0 -45,6 -55,17 -11,11 -16,30 -16,56l134 0z"/>
   <path id="34" class="fil7 str4" d="M20017 5694c-45,0 -79,-12 -102,-34 -23,-23 -34,-55 -34,-99 0,-43 12,-76 37,-99 25,-22 59,-33 102,-33 17,0 32,1 44,4 12,2 23,6 35,11l0 44c-19,-9 -41,-14 -68,-14 -30,0 -53,7 -68,20 -15,14 -23,36 -23,67 0,31 7,53 21,67 14,14 37,21 69,21 25,0 49,-5 69,-14l0 44c-23,10 -51,15 -82,15z"/>
   <path id="35" class="fil7 str4" d="M20156 5327l59 0 0 132c11,-9 24,-17 40,-22 16,-5 33,-8 51,-8 32,0 56,8 72,23 15,15 23,39 23,72l0 164 -58 0 0 -162c0,-19 -5,-33 -13,-41 -8,-8 -23,-12 -44,-12 -12,0 -26,3 -39,9 -13,5 -24,12 -32,21l0 185 -59 0 0 -361z"/>
  </g>
 </g>
</svg>
